<?xml version="1.0" encoding="UTF-8" standalone="no"?>
<!DOCTYPE svg PUBLIC "-//W3C//DTD SVG 1.1//EN" "http://www.w3.org/Graphics/SVG/1.1/DTD/svg11.dtd">
<svg width="100%" height="100%" viewBox="0 0 332 84" version="1.1" xmlns="http://www.w3.org/2000/svg" xmlns:xlink="http://www.w3.org/1999/xlink" xml:space="preserve" xmlns:serif="http://www.serif.com/" style="fill-rule:evenodd;clip-rule:evenodd;stroke-linejoin:round;stroke-miterlimit:2;">
    <g transform="matrix(1,0,0,1,-2,-94)">
        <g id="Logo---Black" serif:id="Logo - Black" transform="matrix(13.8333,0,0,1.90906,-32271.2,-2647.41)">
            <rect x="2333" y="1436" width="24" height="44" style="fill:none;"/>
            <clipPath id="_clip1">
                <rect x="2333" y="1436" width="24" height="44"/>
            </clipPath>
            <g clip-path="url(#_clip1)">
                <g id="Logo" transform="matrix(0.0705991,0,0,0.511645,2332.26,1288.64)">
                    <rect x="301.293" y="288.001" width="49.149" height="85.999" style="fill-opacity:0.5;"/>
                </g>
                <g id="T" transform="matrix(0.0722892,0,0,0.523819,2351.65,1386.76)">
                    <path d="M10,147.999C10,152.414 13.585,155.999 18,155.999L20,156L20,166L18,165.999C8.066,165.999 -0,157.933 -0,147.999L0,106L10,105.999L10,119.999L20,120L20,129.999L10,129.999L10,147.999Z"/>
                </g>
                <g id="J" transform="matrix(1.14157,0,0,1.02383,-331.503,-34.2165)">
                    <g transform="matrix(-0.0633245,0,0,0.511628,2351.05,1288.65)">
                        <path d="M24.008,342C24.008,346.415 27.593,350 32.008,350L32.008,360C22.074,360 14.008,351.934 14.008,342L14.008,314.001L24.008,314L24.008,342Z"/>
                    </g>
                    <g transform="matrix(0.0633245,0,0,0.19678,2333,1379.96)">
                        <rect x="261" y="316" width="10" height="26"/>
                    </g>
                </g>
                <g id="A" transform="matrix(0.0722892,0,0,0.523819,2333,1386.76)">
                    <path d="M221.996,162.492C218.056,165.327 213.222,166.999 208,166.999C194.754,166.999 184,156.245 184,142.999C184,129.753 194.754,118.999 208,118.999C213.222,118.999 218.056,120.67 221.996,123.505L221.996,119.999L232,119.999L232,165.999L221.996,165.999L221.996,162.492ZM221.996,142.65L221.996,143.347C221.81,150.913 215.61,156.999 208,156.999C200.273,156.999 194,150.725 194,142.999C194,135.272 200.273,128.999 208,128.999C215.61,128.999 221.81,135.084 221.996,142.65Z"/>
                </g>
                <g id="B" transform="matrix(0.0722892,0,0,0.523819,2333,1386.76)">
                    <path d="M142,123.505C145.94,120.67 150.774,118.999 155.996,118.999C169.242,118.999 179.996,129.753 179.996,142.999C179.996,156.245 169.242,166.999 155.996,166.999C150.774,166.999 145.94,165.327 142,162.492L142,165.999L131.996,165.999L131.996,105.999L142,105.999L142,123.505ZM142,143.347L142,142.65C142.185,135.084 148.386,128.999 155.996,128.999C163.723,128.999 169.996,135.272 169.996,142.999C169.996,150.725 163.723,156.999 155.996,156.999C148.386,156.999 142.185,150.913 142,143.347Z"/>
                </g>
                <g id="N" transform="matrix(0.0722892,0,0,0.523819,2333,1386.76)">
                    <path d="M88.004,123.505C91.944,120.67 96.778,118.999 102,118.999C115.246,118.999 126,129.753 126,142.999L126,165.999L116,165.999L116,142.999C116,135.272 109.727,128.999 102,128.999C94.39,128.999 88.19,135.084 88.004,142.65L88.004,165.999L78,165.999L78,119.999L88.004,119.999L88.004,123.505Z"/>
                </g>
                <g id="E" transform="matrix(0.0722892,0,0,0.523819,2333,1386.76)">
                    <path d="M42.29,155.783C44.033,156.564 45.966,156.999 48,156.999C55.727,156.999 62,150.725 62,142.999L72,142.999C72,156.245 61.246,166.999 48,166.999C34.754,166.999 24,156.245 24,142.999C24,129.753 34.754,118.999 48,118.999C56.416,118.999 63.827,123.34 68.111,129.904L42.29,155.783ZM53.71,130.214L35.216,148.709C34.435,146.965 34,145.032 34,142.999C34,135.272 40.273,128.999 48,128.999C50.034,128.999 51.967,129.433 53.71,130.214Z"/>
                </g>
                <g id="T1" serif:id="T" transform="matrix(0.0722892,0,0,0.523819,2333,1386.76)">
                    <path d="M10,147.999C10,152.414 13.585,155.999 18,155.999L20,156L20,166L18,165.999C8.066,165.999 -0,157.933 -0,147.999L0,106L10,105.999L10,119.999L20,120L20,129.999L10,129.999L10,147.999Z"/>
                </g>
            </g>
        </g>
    </g>
</svg>
